Coordinates
version=1
nRows=12
nColumns=24
inDegrees=yes

Units are S.I. units (second, meters, Newtons, ...)
Angles are in degrees.

endheader
time	pelvis_tilt	pelvis_list	pelvis_rotation	pelvis_tx	pelvis_ty	pelvis_tz	hip_flexion_r	hip_adduction_r	hip_rotation_r	knee_angle_r	ankle_angle_r	subtalar_angle_r	mtp_angle_r	hip_flexion_l	hip_adduction_l	hip_rotation_l	knee_angle_l	ankle_angle_l	subtalar_angle_l	mtp_angle_l	lumbar_extension	lumbar_bending	lumbar_rotation
      6.28000000	     52.31260562	     -9.90617853	      3.20162110	      0.84917411	      1.07181462	     -0.23481697	     17.95331582	     -2.35682027	     -0.72783843	    -68.39735462	     10.62674838	     28.69573336	      0.00000000	     20.21582848	    -12.34600580	      2.65680859	    -69.38511796	      2.06566420	      1.42311904	      0.00000000	      0.00000000	      0.00000000	      0.00000000
      6.29000000	     52.31235322	     -9.90630752	      3.20192025	      0.84917737	      1.07181322	     -0.23481015	     17.95339481	     -2.36211312	     -0.70739802	    -68.39204887	     10.63526151	     28.64511689	      0.00000000	     20.21633505	    -12.34643287	      2.65543430	    -69.38659626	      2.06737979	      1.42016652	      0.00000000	      0.00000000	      0.00000000	      0.00000000
      6.30000000	     52.31141469	     -9.90615325	      3.20127796	      0.84917949	      1.07180852	     -0.23480326	     17.95356229	     -2.36621829	     -0.69091485	    -68.37794662	     10.63787566	     28.60109136	      0.00000000	     20.21718421	    -12.34660505	      2.65289467	    -69.38766037	      2.06820710	      1.41656882	      0.00000000	      0.00000000	      0.00000000	      0.00000000
      6.31000000	     52.30975262	     -9.90607798	      3.19970805	      0.84917570	      1.07180152	     -0.23479980	     17.95386632	     -2.36947886	     -0.67837625	    -68.35568688	     10.63431631	     28.56575319	      0.00000000	     20.21814798	    -12.34664379	      2.64970966	    -69.38800964	      2.06866830	      1.41299145	      0.00000000	      0.00000000	      0.00000000	      0.00000000
      6.32000000	     52.30777544	     -9.90602033	      3.19755178	      0.84917063	      1.07179810	     -0.23480073	     17.95451268	     -2.37213734	     -0.66982812	    -68.32618187	     10.62603491	     28.53830016	      0.00000000	     20.21916131	    -12.34675141	      2.64654741	    -69.38746682	      2.06936571	      1.40994085	      0.00000000	      0.00000000	      0.00000000	      0.00000000
      6.33000000	     52.30591713	     -9.90572085	      3.19545804	      0.84917003	      1.07180039	     -0.23480256	     17.95567912	     -2.37429757	     -0.66534437	    -68.29033038	     10.61517868	     28.51605547	      0.00000000	     20.22012881	    -12.34703947	      2.64395589	    -69.38608888	      2.07084040	      1.40763662	      0.00000000	      0.00000000	      0.00000000	      0.00000000
      6.34000000	     52.30428096	     -9.90521807	      3.19413104	      0.84917370	      1.07180415	     -0.23480119	     17.95736703	     -2.37602784	     -0.66488757	    -68.24881176	     10.60346908	     28.49592058	      0.00000000	     20.22075575	    -12.34743531	      2.64223949	    -69.38414126	      2.07346420	      1.40598918	      0.00000000	      0.00000000	      0.00000000	      0.00000000
      6.35000000	     52.30269139	     -9.90482714	      3.19384340	      0.84917723	      1.07180505	     -0.23479774	     17.95920500	     -2.37730304	     -0.66833087	    -68.20203181	     10.59153694	     28.47566623	      0.00000000	     20.22076209	    -12.34775175	      2.64149159	    -69.38196793	      2.07739186	      1.40464949	      0.00000000	      0.00000000	      0.00000000	      0.00000000
      6.36000000	     52.30100908	     -9.90471491	      3.19420118	      0.84917618	      1.07180472	     -0.23479742	     17.96043626	     -2.37775916	     -0.67564745	    -68.15016571	     10.57900966	     28.45459233	      0.00000000	     20.22018070	    -12.34774838	      2.64159604	    -69.37990321	      2.08256242	      1.40311925	      0.00000000	      0.00000000	      0.00000000	      0.00000000
      6.37000000	     52.29944947	     -9.90469524	      3.19447826	      0.84916963	      1.07180897	     -0.23480076	     17.96034821	     -2.37664258	     -0.68694751	    -68.09322232	     10.56524399	     28.43339442	      0.00000000	     20.21932450	    -12.34718409	      2.64222900	    -69.37824782	      2.08872939	      1.40090606	      0.00000000	      0.00000000	      0.00000000	      0.00000000
      6.38000000	     52.29848214	     -9.90430345	      3.19416785	      0.84916188	      1.07181901	     -0.23480099	     17.95869977	     -2.37306709	     -0.70224833	    -68.03134562	     10.55025093	     28.41345335	      0.00000000	     20.21844814	    -12.34598919	      2.64302996	    -69.37721965	      2.09550736	      1.39767714	      0.00000000	      0.00000000	      0.00000000	      0.00000000
      6.39000000	     52.29834269	     -9.90298532	      3.19325085	      0.84916006	      1.07182650	     -0.23479454	     17.95571451	     -2.36639716	     -0.72118952	    -67.96536512	     10.53526588	     28.39600854	      0.00000000	     20.21749068	    -12.34442807	      2.64385786	    -69.37682087	      2.10242866	      1.39335499	      0.00000000	      0.00000000	      0.00000000	      0.00000000
